<?xml version="1.0" encoding="UTF-8" standalone="no"?>
<!-- Created with Inkscape (http://www.inkscape.org/) -->

<svg
   xmlns:dc="http://purl.org/dc/elements/1.1/"
   xmlns:cc="http://creativecommons.org/ns#"
   xmlns:rdf="http://www.w3.org/1999/02/22-rdf-syntax-ns#"
   xmlns:svg="http://www.w3.org/2000/svg"
   xmlns="http://www.w3.org/2000/svg"
   xmlns:sodipodi="http://sodipodi.sourceforge.net/DTD/sodipodi-0.dtd"
   xmlns:inkscape="http://www.inkscape.org/namespaces/inkscape"
   width="744.09448819"
   height="1052.3622047"
   id="svg2"
   version="1.1"
   inkscape:version="0.48.2 r9819"
   sodipodi:docname="chopiner.svg">
  <defs
     id="defs4" />
  <sodipodi:namedview
     id="base"
     pagecolor="#ffffff"
     bordercolor="#666666"
     borderopacity="1.0"
     inkscape:pageopacity="0.0"
     inkscape:pageshadow="2"
     inkscape:zoom="0.90714286"
     inkscape:cx="372.04724"
     inkscape:cy="617.57447"
     inkscape:document-units="px"
     inkscape:current-layer="layer1"
     showgrid="false"
     showguides="false"
     inkscape:window-width="1162"
     inkscape:window-height="851"
     inkscape:window-x="0"
     inkscape:window-y="0"
     inkscape:window-maximized="0" />
  <metadata
     id="metadata7">
    <rdf:RDF>
      <cc:Work
         rdf:about="">
        <dc:format>image/svg+xml</dc:format>
        <dc:type
           rdf:resource="http://purl.org/dc/dcmitype/StillImage" />
        <dc:title></dc:title>
      </cc:Work>
    </rdf:RDF>
  </metadata>
  <g
     inkscape:label="Layer 1"
     inkscape:groupmode="layer"
     id="layer1">
    <g
       id="g3042"
       style="fill:#d33682;fill-opacity:1"
       transform="translate(12.661713,-10.247714)">
      <flowRoot
         xml:space="preserve"
         id="flowRoot3037"
         style="fill:black;stroke:none;stroke-opacity:1;stroke-width:1px;stroke-linejoin:miter;stroke-linecap:butt;fill-opacity:1;font-family:Sans;font-style:normal;font-weight:normal;font-size:40px;line-height:125%;letter-spacing:0px;word-spacing:0px"><flowRegion
           id="flowRegion3039"><rect
             id="rect3041"
             width="672.44092"
             height="498.2677"
             x="39.68504"
             y="138.50392" /></flowRegion><flowPara
           id="flowPara3043"></flowPara></flowRoot>    </g>
    <g
       id="g3047"
       inkscape:export-filename="/Users/brettwines/Desktop/chopiner2-magentapng.png"
       inkscape:export-xdpi="90"
       inkscape:export-ydpi="90">
      <g
         transform="translate(18.492645,-16.889461)"
         id="g3011">
        <path
           d="m 328.0966,285.27026 c 0,5.9272 -4.80494,10.73214 -10.73213,10.73214 -5.92719,0 -10.73213,-4.80494 -10.73213,-10.73214 0,-5.92719 4.80494,-10.73213 10.73213,-10.73213 5.92719,0 10.73213,4.80494 10.73213,10.73213 z"
           sodipodi:ry="10.732132"
           sodipodi:rx="10.732132"
           sodipodi:cy="285.27026"
           sodipodi:cx="317.36447"
           id="path3005"
           style="fill:#d33682;fill-opacity:1;stroke:none"
           sodipodi:type="arc" />
        <path
           sodipodi:type="arc"
           style="fill:#d33682;fill-opacity:1;stroke:none"
           id="path3007"
           sodipodi:cx="317.36447"
           sodipodi:cy="285.27026"
           sodipodi:rx="10.732132"
           sodipodi:ry="10.732132"
           d="m 328.0966,285.27026 c 0,5.9272 -4.80494,10.73214 -10.73213,10.73214 -5.92719,0 -10.73213,-4.80494 -10.73213,-10.73214 0,-5.92719 4.80494,-10.73213 10.73213,-10.73213 5.92719,0 10.73213,4.80494 10.73213,10.73213 z"
           transform="translate(33,0)" />
        <path
           d="m 328.0966,285.27026 c 0,5.9272 -4.80494,10.73214 -10.73213,10.73214 -5.92719,0 -10.73213,-4.80494 -10.73213,-10.73214 0,-5.92719 4.80494,-10.73213 10.73213,-10.73213 5.92719,0 10.73213,4.80494 10.73213,10.73213 z"
           sodipodi:ry="10.732132"
           sodipodi:rx="10.732132"
           sodipodi:cy="285.27026"
           sodipodi:cx="317.36447"
           id="path3009"
           style="fill:#d33682;fill-opacity:1;stroke:none"
           sodipodi:type="arc"
           transform="translate(66,0)" />
      </g>
      <g
         transform="translate(-3.0517578e-5,0)"
         id="g3822">
        <path
           transform="matrix(0.70710678,-0.70710679,0.70710679,0.70710678,210.37457,245.48299)"
           d="m 165.71428,275.21933 c 0,18.93548 -19.18779,34.28571 -42.85714,34.28571 -23.669347,0 -42.857144,-15.35023 -42.857144,-34.28571 0,-18.93548 19.187797,-34.28571 42.857144,-34.28571 23.66935,0 42.85714,15.35023 42.85714,34.28571 z"
           sodipodi:ry="34.285713"
           sodipodi:rx="42.857143"
           sodipodi:cy="275.21933"
           sodipodi:cx="122.85714"
           id="path2995"
           style="fill:#d33682;fill-opacity:1;stroke:none"
           sodipodi:type="arc" />
        <rect
           y="360.0545"
           x="454.40643"
           height="193.51909"
           width="5.7779264"
           id="rect3018"
           style="fill:#d33682;fill-opacity:1;stroke:none" />
      </g>
      <g
         transform="translate(-1.5258789e-5,0)"
         id="g3814">
        <path
           transform="matrix(0.70710678,-0.70710679,0.70710679,0.70710678,-35.62543,83.48299)"
           d="m 165.71428,275.21933 c 0,18.93548 -19.18779,34.28571 -42.85714,34.28571 -23.669347,0 -42.857144,-15.35023 -42.857144,-34.28571 0,-18.93548 19.187797,-34.28571 42.857144,-34.28571 23.66935,0 42.85714,15.35023 42.85714,34.28571 z"
           sodipodi:ry="34.285713"
           sodipodi:rx="42.857143"
           sodipodi:cy="275.21933"
           sodipodi:cx="122.85714"
           id="path2991"
           style="fill:#d33682;fill-opacity:1;stroke:none"
           sodipodi:type="arc" />
        <rect
           style="fill:#d33682;fill-opacity:1;stroke:none"
           id="rect3020"
           width="5.7779264"
           height="353.78558"
           x="207.14941"
           y="199.73712" />
      </g>
      <g
         id="g3830">
        <path
           sodipodi:type="arc"
           style="fill:#d33682;fill-opacity:1;stroke:none"
           id="path2997"
           sodipodi:cx="122.85714"
           sodipodi:cy="275.21933"
           sodipodi:rx="42.857143"
           sodipodi:ry="34.285713"
           d="m 165.71428,275.21933 a 42.857143,34.285713 0 1 1 -85.714284,0 42.857143,34.285713 0 1 1 85.714284,0 z"
           transform="matrix(0.70710678,-0.70710679,0.70710679,0.70710678,333.37457,167.48299)" />
        <rect
           y="283.73712"
           x="577.349"
           height="291.77771"
           width="5.7779264"
           id="rect3022"
           style="fill:#d33682;fill-opacity:1;stroke:none" />
      </g>
      <rect
         transform="matrix(0,1,-1,0,0,0)"
         style="fill:#d33682;fill-opacity:1;stroke:none"
         id="rect3024"
         width="25.07572"
         height="497.83466"
         x="553.45459"
         y="-583.19733" />
      <rect
         y="-582.76617"
         x="519.45459"
         height="497.83466"
         width="25.07572"
         id="rect3026"
         style="fill:#d33682;fill-opacity:1;stroke:none"
         transform="matrix(0,1,-1,0,0,0)" />
      <rect
         y="-238.16031"
         x="610.53394"
         height="151.90657"
         width="5.9963932"
         id="rect3030"
         style="fill:#d33682;fill-opacity:1;stroke:none"
         transform="matrix(0,1,-1,0,0,0)" />
      <rect
         transform="matrix(0,1,-1,0,0,0)"
         style="fill:#d33682;fill-opacity:1;stroke:none"
         id="rect3032"
         width="5.9963932"
         height="152.86453"
         x="610.53394"
         y="-581.74768" />
      <rect
         style="fill:#d33682;fill-opacity:1;stroke:none"
         id="rect3034"
         width="5.7779264"
         height="23.23592"
         x="84.834946"
         y="592.89008" />
      <rect
         y="592.89008"
         x="576.83496"
         height="23.23592"
         width="5.7779264"
         id="rect3036"
         style="fill:#d33682;fill-opacity:1;stroke:none" />
      <text
         xml:space="preserve"
         style="fill:#d33682;fill-opacity:1;font-size:40px;font-style:normal;font-weight:normal;line-height:125%;letter-spacing:0px;word-spacing:0px;stroke:none;font-family:Sans"
         x="238.36633"
         y="638.34039"
         id="text3038"
         sodipodi:linespacing="125%"
         transform="translate(12.661713,-10.247714)"><tspan
           style="-inkscape-font-specification:Sans Italic;font-family:Sans;font-weight:normal;font-style:italic;font-stretch:normal;font-variant:normal;font-size:40px;text-anchor:start;text-align:start;writing-mode:lr;line-height:125%"
           sodipodi:role="line"
           id="tspan3040"
           x="238.36633"
           y="638.34039">14.2857</tspan></text>
      <g
         id="g3996">
        <g
           id="g3818">
          <path
             transform="matrix(0.70710678,-0.70710679,0.70710679,0.70710678,-158.62543,164.06374)"
             d="m 165.71428,275.21933 a 42.857143,34.285713 0 1 1 -85.714284,0 42.857143,34.285713 0 1 1 85.714284,0 z"
             sodipodi:ry="34.285713"
             sodipodi:rx="42.857143"
             sodipodi:cy="275.21933"
             sodipodi:cx="122.85714"
             id="path2985"
             style="fill:#d33682;fill-opacity:1;stroke:none"
             sodipodi:type="arc" />
          <rect
             y="285.73712"
             x="84.834946"
             height="258.38885"
             width="5.7779264"
             id="rect3016"
             style="fill:#d33682;fill-opacity:1;stroke:none" />
        </g>
        <rect
           style="fill:#d33682;fill-opacity:1;stroke:none"
           id="rect3913"
           width="5.3286576"
           height="155.49667"
           x="84.7444"
           y="421.99152" />
      </g>
    </g>
  </g>
</svg>
