<?xml version="1.0" encoding="UTF-8" standalone="no"?>
<!-- Created with Inkscape (http://www.inkscape.org/) -->

<svg
   xmlns:dc="http://purl.org/dc/elements/1.1/"
   xmlns:cc="http://creativecommons.org/ns#"
   xmlns:rdf="http://www.w3.org/1999/02/22-rdf-syntax-ns#"
   xmlns:svg="http://www.w3.org/2000/svg"
   xmlns="http://www.w3.org/2000/svg"
   xmlns:sodipodi="http://sodipodi.sourceforge.net/DTD/sodipodi-0.dtd"
   xmlns:inkscape="http://www.inkscape.org/namespaces/inkscape"
   id="svg2"
   version="1.1"
   inkscape:version="0.48.2 r9819"
   width="53.007812"
   height="65.742188"
   xml:space="preserve"
   sodipodi:docname="karel1.pdf"><metadata
     id="metadata8"><rdf:RDF><cc:Work
         rdf:about=""><dc:format>image/svg+xml</dc:format><dc:type
           rdf:resource="http://purl.org/dc/dcmitype/StillImage" /><dc:title></dc:title></cc:Work></rdf:RDF></metadata><defs
     id="defs6" /><sodipodi:namedview
     pagecolor="#ffffff"
     bordercolor="#666666"
     borderopacity="1"
     objecttolerance="10"
     gridtolerance="10"
     guidetolerance="10"
     inkscape:pageopacity="0"
     inkscape:pageshadow="2"
     inkscape:window-width="817"
     inkscape:window-height="538"
     id="namedview4"
     showgrid="false"
     fit-margin-top="0"
     fit-margin-left="0"
     fit-margin-right="0"
     fit-margin-bottom="0"
     inkscape:zoom="4.5755072"
     inkscape:cx="26.503906"
     inkscape:cy="36.582753"
     inkscape:window-x="435"
     inkscape:window-y="100"
     inkscape:window-maximized="0"
     inkscape:current-layer="g10" /><g
     id="g10"
     inkscape:groupmode="layer"
     inkscape:label="karel1"
     transform="matrix(1.25,0,0,-1.25,-140.73172,213.15942)"><g
       transform="translate(-11.22712,293.15254)"
       id="g104"
       inkscape:export-filename="/Users/brettwines/Desktop/cs198-magenta.png"
       inkscape:export-xdpi="1697.86"
       inkscape:export-ydpi="1697.86"><path
         inkscape:connector-curvature="0"
         id="path106"
         style="fill:#dd3682;fill-opacity:1;fill-rule:nonzero;stroke:#dd3682;stroke-width:1.44837104999999999;stroke-linecap:butt;stroke-linejoin:miter;stroke-miterlimit:4;stroke-opacity:1;stroke-dasharray:none"
         d="m 147.043,-174.508 -0.02,4.055 -0.023,4.051 -3.895,0.023 -3.89,0.027 -3.035,3.028 -3.035,3.031 -0.02,2.465 -0.027,2.453 -2.414,0 -2.403,0 -0.051,-2.738 -0.042,-2.731 -1.833,-0.027 -1.832,-0.02 0,4.864 0,4.867 4.29,0.019 4.285,0.028 0.019,13.879 0.028,13.875 11.976,0 11.977,0 4.195,-4.196 4.195,-4.191 0,-17.309 0,-17.297 -6.972,-0.027 -6.977,-0.023 0,-2.036 0,-2.042 3.289,-0.043 3.289,-0.051 0.028,-1.965 0.023,-1.969 -5.559,0 -5.566,0 z m -7.547,8.524 12.789,0.019 12.785,0.024 0.02,16.957 0.031,16.953 -4.152,4.152 -4.153,4.145 -11.625,-0.024 -11.628,-0.019 -0.028,-18.114 -0.019,-18.117 2.988,-2.984 2.992,-2.992 z m 12.305,6.882 c -3.297,-0.019 -4.672,0.004 -4.715,0.079 -0.035,0.054 -0.027,0.136 0.019,0.183 0.051,0.051 1.981,0.078 4.719,0.063 4.039,-0.02 4.625,-0.043 4.625,-0.164 0,-0.122 -0.586,-0.141 -4.648,-0.161 z m -3.625,6.758 c -6.571,-0.015 -8.281,0 -8.317,0.094 -0.027,0.062 -0.035,5.328 -0.023,11.695 l 0.027,11.586 8.289,0 8.297,0 0,-11.676 0,-11.675 -8.273,-0.024 z m 0,0.371 7.906,0.028 0,11.3 0,11.301 -7.93,0 -7.922,0 -0.019,-11.211 c -0.012,-6.164 -0.004,-11.265 0.019,-11.328 0.036,-0.094 1.672,-0.109 7.946,-0.09 z" /></g></g></svg>