<?xml version="1.0" encoding="UTF-8" standalone="no"?>
<!-- Created with Inkscape (http://www.inkscape.org/) -->

<svg
   xmlns:dc="http://purl.org/dc/elements/1.1/"
   xmlns:cc="http://creativecommons.org/ns#"
   xmlns:rdf="http://www.w3.org/1999/02/22-rdf-syntax-ns#"
   xmlns:svg="http://www.w3.org/2000/svg"
   xmlns="http://www.w3.org/2000/svg"
   xmlns:sodipodi="http://sodipodi.sourceforge.net/DTD/sodipodi-0.dtd"
   xmlns:inkscape="http://www.inkscape.org/namespaces/inkscape"
   width="744.09448819"
   height="1052.3622047"
   id="svg2"
   version="1.1"
   inkscape:version="0.48.2 r9819"
   sodipodi:docname="New document 1">
  <defs
     id="defs4" />
  <sodipodi:namedview
     id="base"
     pagecolor="#ffffff"
     bordercolor="#666666"
     borderopacity="1.0"
     inkscape:pageopacity="0.0"
     inkscape:pageshadow="2"
     inkscape:zoom="1.2753757"
     inkscape:cx="340.68393"
     inkscape:cy="671.02617"
     inkscape:document-units="px"
     inkscape:current-layer="layer1"
     showgrid="false"
     inkscape:window-width="1436"
     inkscape:window-height="856"
     inkscape:window-x="0"
     inkscape:window-y="0"
     inkscape:window-maximized="1" />
  <metadata
     id="metadata7">
    <rdf:RDF>
      <cc:Work
         rdf:about="">
        <dc:format>image/svg+xml</dc:format>
        <dc:type
           rdf:resource="http://purl.org/dc/dcmitype/StillImage" />
        <dc:title></dc:title>
      </cc:Work>
    </rdf:RDF>
  </metadata>
  <g
     inkscape:label="Layer 1"
     inkscape:groupmode="layer"
     id="layer1">
    <path
       sodipodi:type="arc"
       style="fill:none;stroke:#d33682;stroke-width:10;stroke-miterlimit:4;stroke-opacity:1;stroke-dasharray:none"
       id="path2985"
       sodipodi:cx="122.85714"
       sodipodi:cy="353.79074"
       sodipodi:rx="88.571426"
       sodipodi:ry="89.703949"
       d="m 211.42857,353.79074 a 88.571426,89.703949 0 1 1 -177.142857,0 88.571426,89.703949 0 1 1 177.142857,0 z"
       transform="matrix(1.0126388,0,0,0.99965846,-0.40268727,0.12083227)"
       inkscape:export-filename="/Users/brettwines/Desktop/recursion-transformerpng.png"
       inkscape:export-xdpi="90"
       inkscape:export-ydpi="90" />
    <path
       d="m 211.42857,353.79074 a 88.571426,89.703949 0 1 1 -177.142857,0 88.571426,89.703949 0 1 1 177.142857,0 z"
       sodipodi:ry="89.703949"
       sodipodi:rx="88.571426"
       sodipodi:cy="353.79074"
       sodipodi:cx="122.85714"
       id="path3757"
       style="fill:none;stroke:#d33682;stroke-width:31641845260.09466934;stroke-miterlimit:4;stroke-opacity:1;stroke-dasharray:none"
       sodipodi:type="arc"
       transform="matrix(0.66120701,0,0,0.6528576,42.773217,122.81577)" />
    <path
       transform="matrix(0.28653922,0,0,0.30967244,88.80383,244.2315)"
       sodipodi:type="arc"
       style="fill:none;stroke:#d33682;stroke-width:10484038990847615962714210304;stroke-miterlimit:4;stroke-opacity:1;stroke-dasharray:none"
       id="path3759"
       sodipodi:cx="122.85714"
       sodipodi:cy="353.79074"
       sodipodi:rx="88.571426"
       sodipodi:ry="89.703949"
       d="m 211.42857,353.79074 a 88.571426,89.703949 0 1 1 -177.142857,0 88.571426,89.703949 0 1 1 177.142857,0 z" />
    <path
       transform="matrix(0.70662573,0,0,0.69964442,37.193203,106.26302)"
       d="m 211.42857,353.79074 a 88.571426,89.703949 0 1 1 -177.142857,0 88.571426,89.703949 0 1 1 177.142857,0 z"
       sodipodi:ry="89.703949"
       sodipodi:rx="88.571426"
       sodipodi:cy="353.79074"
       sodipodi:cx="122.85714"
       id="path3761"
       style="fill:none;stroke:#d33682;stroke-width:14.30894947;stroke-miterlimit:4;stroke-opacity:1;stroke-dasharray:none"
       sodipodi:type="arc"
       inkscape:export-filename="/Users/brettwines/Desktop/recursion-transformerpng.png"
       inkscape:export-xdpi="90"
       inkscape:export-ydpi="90" />
    <path
       sodipodi:type="arc"
       style="fill:none;stroke:#d33682;stroke-width:28.80845642;stroke-miterlimit:4;stroke-opacity:1;stroke-dasharray:none"
       id="path3763"
       sodipodi:cx="122.85714"
       sodipodi:cy="353.79074"
       sodipodi:rx="88.571426"
       sodipodi:ry="89.703949"
       d="m 211.42857,353.79074 a 88.571426,89.703949 0 1 1 -177.142857,0 88.571426,89.703949 0 1 1 177.142857,0 z"
       transform="matrix(0.35197933,0,0,0.34651749,80.764045,231.19606)"
       inkscape:export-filename="/Users/brettwines/Desktop/recursion-transformerpng.png"
       inkscape:export-xdpi="90"
       inkscape:export-ydpi="90" />
    <path
       transform="matrix(1.0126388,0,0,0.99965846,224.41177,0.12083227)"
       d="m 211.42857,353.79074 a 88.571426,89.703949 0 1 1 -177.142857,0 88.571426,89.703949 0 1 1 177.142857,0 z"
       sodipodi:ry="89.703949"
       sodipodi:rx="88.571426"
       sodipodi:cy="353.79074"
       sodipodi:cx="122.85714"
       id="path3765"
       style="fill:none;stroke:#d33682;stroke-width:10;stroke-miterlimit:4;stroke-opacity:1;stroke-dasharray:none"
       sodipodi:type="arc"
       inkscape:export-filename="/Users/brettwines/Desktop/recursion-transformerpng.png"
       inkscape:export-xdpi="90"
       inkscape:export-ydpi="90" />
    <path
       sodipodi:type="arc"
       style="fill:none;stroke:#d33682;stroke-width:14.30894947;stroke-miterlimit:4;stroke-opacity:1;stroke-dasharray:none"
       id="path3767"
       sodipodi:cx="122.85714"
       sodipodi:cy="353.79074"
       sodipodi:rx="88.571426"
       sodipodi:ry="89.703949"
       d="m 211.42857,353.79074 a 88.571426,89.703949 0 1 1 -177.142857,0 88.571426,89.703949 0 1 1 177.142857,0 z"
       transform="matrix(0.70662573,0,0,0.69964442,439.32353,106.26302)"
       inkscape:export-filename="/Users/brettwines/Desktop/recursion-transformerpng.png"
       inkscape:export-xdpi="90"
       inkscape:export-ydpi="90" />
    <path
       transform="matrix(0.35197933,0,0,0.34651749,600.73368,231.19606)"
       d="m 211.42857,353.79074 a 88.571426,89.703949 0 1 1 -177.142857,0 88.571426,89.703949 0 1 1 177.142857,0 z"
       sodipodi:ry="89.703949"
       sodipodi:rx="88.571426"
       sodipodi:cy="353.79074"
       sodipodi:cx="122.85714"
       id="path3769"
       style="fill:none;stroke:#d33682;stroke-width:28.80845642;stroke-miterlimit:4;stroke-opacity:1;stroke-dasharray:none"
       sodipodi:type="arc"
       inkscape:export-filename="/Users/brettwines/Desktop/recursion-transformerpng.png"
       inkscape:export-xdpi="90"
       inkscape:export-ydpi="90" />
    <rect
       style="fill:#d33682;fill-opacity:1;stroke:none"
       id="rect3771"
       width="10.977155"
       height="107.41933"
       x="108.20341"
       y="479.19772"
       inkscape:export-filename="/Users/brettwines/Desktop/recursion-transformerpng.png"
       inkscape:export-xdpi="90"
       inkscape:export-ydpi="90" />
    <rect
       y="-348.17252"
       x="575.67969"
       height="239.92929"
       width="10.977155"
       id="rect3773"
       style="fill:#d33682;fill-opacity:1;stroke:none"
       transform="matrix(0,1,-1,0,0,0)"
       inkscape:export-filename="/Users/brettwines/Desktop/recursion-transformerpng.png"
       inkscape:export-xdpi="90"
       inkscape:export-ydpi="90" />
    <rect
       y="479.19772"
       x="338.2034"
       height="107.41933"
       width="10.977155"
       id="rect3775"
       style="fill:#d33682;fill-opacity:1;stroke:none"
       inkscape:export-filename="/Users/brettwines/Desktop/recursion-transformerpng.png"
       inkscape:export-xdpi="90"
       inkscape:export-ydpi="90" />
    <path
       sodipodi:type="star"
       style="fill:#d33682;fill-opacity:1;stroke:none"
       id="path3777"
       sodipodi:sides="3"
       sodipodi:cx="305.79224"
       sodipodi:cy="501.15204"
       sodipodi:r1="63.761883"
       sodipodi:r2="31.880941"
       sodipodi:arg1="-0.77670273"
       sodipodi:arg2="0.27049482"
       inkscape:flatsided="false"
       inkscape:rounded="0"
       inkscape:randomized="0"
       d="m 351.26903,456.45932 -14.75508,53.21157 -14.75509,53.21157 -38.70502,-39.38406 -38.70503,-39.38407 53.46011,-13.8275 z"
       inkscape:transform-center-x="0.10990963"
       inkscape:transform-center-y="-6.2226714"
       transform="matrix(0.28036963,-0.28026422,0.28036963,0.28026421,117.55923,436.13847)"
       inkscape:export-filename="/Users/brettwines/Desktop/recursion-transformerpng.png"
       inkscape:export-xdpi="90"
       inkscape:export-ydpi="90" />
  </g>
</svg>
