<?xml version="1.0" encoding="UTF-8" standalone="no"?>
<!-- Created with Inkscape (http://www.inkscape.org/) -->

<svg
   xmlns:dc="http://purl.org/dc/elements/1.1/"
   xmlns:cc="http://creativecommons.org/ns#"
   xmlns:rdf="http://www.w3.org/1999/02/22-rdf-syntax-ns#"
   xmlns:svg="http://www.w3.org/2000/svg"
   xmlns="http://www.w3.org/2000/svg"
   xmlns:sodipodi="http://sodipodi.sourceforge.net/DTD/sodipodi-0.dtd"
   xmlns:inkscape="http://www.inkscape.org/namespaces/inkscape"
   id="svg2"
   version="1.1"
   inkscape:version="0.48.2 r9819"
   width="196.79117"
   height="34.71875"
   xml:space="preserve"
   sodipodi:docname="viennese_swirly.svg"
   inkscape:export-filename="/Users/lgarron/Documents/Events/Dances/Viennese 2013/Tickets/viennese_ball_2013_tickets_inverted.png"
   inkscape:export-xdpi="186.17999"
   inkscape:export-ydpi="186.17999"><metadata
     id="metadata8"><rdf:RDF><cc:Work
         rdf:about=""><dc:format>image/svg+xml</dc:format><dc:type
           rdf:resource="http://purl.org/dc/dcmitype/StillImage" /><dc:title></dc:title></cc:Work></rdf:RDF></metadata><defs
     id="defs6"><clipPath
   id="clipPath16"
   clipPathUnits="userSpaceOnUse"><path
     inkscape:connector-curvature="0"
     id="path18-7"
     d="M 0,600 600,600 600,0 0,0 0,600 z" /></clipPath><filter
   id="filter3461"
   color-interpolation-filters="sRGB"
   height="1"
   width="1"
   y="0"
   x="0"><feColorMatrix
     id="feColorMatrix3463"
     type="saturate"
     values="1"
     result="fbSourceGraphic" /><feColorMatrix
     id="feColorMatrix3465"
     in="fbSourceGraphic"
     values="-1 0 0 0 1 0 -1 0 0 1 0 0 -1 0 1 0 0 0 1 0 " /></filter><filter
   id="filter3455"
   color-interpolation-filters="sRGB"
   height="1"
   width="1"
   y="0"
   x="0"><feColorMatrix
     id="feColorMatrix3457"
     type="saturate"
     values="1"
     result="fbSourceGraphic" /><feColorMatrix
     id="feColorMatrix3459"
     in="fbSourceGraphic"
     values="-1 0 0 0 1 0 -1 0 0 1 0 0 -1 0 1 0 0 0 1 0 " /></filter><filter
   id="filter3449"
   color-interpolation-filters="sRGB"
   height="1"
   width="1"
   y="0"
   x="0"><feColorMatrix
     id="feColorMatrix3451"
     type="saturate"
     values="1"
     result="fbSourceGraphic" /><feColorMatrix
     id="feColorMatrix3453"
     in="fbSourceGraphic"
     values="-1 0 0 0 1 0 -1 0 0 1 0 0 -1 0 1 0 0 0 1 0 " /></filter><filter
   id="filter3443"
   color-interpolation-filters="sRGB"
   height="1"
   width="1"
   y="0"
   x="0"><feColorMatrix
     id="feColorMatrix3445"
     type="saturate"
     values="1"
     result="fbSourceGraphic" /><feColorMatrix
     id="feColorMatrix3447"
     in="fbSourceGraphic"
     values="-1 0 0 0 1 0 -1 0 0 1 0 0 -1 0 1 0 0 0 1 0 " /></filter><filter
   id="filter3437"
   color-interpolation-filters="sRGB"
   height="1"
   width="1"
   y="0"
   x="0"><feColorMatrix
     id="feColorMatrix3439"
     type="saturate"
     values="1"
     result="fbSourceGraphic" /><feColorMatrix
     id="feColorMatrix3441"
     in="fbSourceGraphic"
     values="-1 0 0 0 1 0 -1 0 0 1 0 0 -1 0 1 0 0 0 1 0 " /></filter><filter
   id="filter3431"
   color-interpolation-filters="sRGB"
   height="1"
   width="1"
   y="0"
   x="0"><feColorMatrix
     id="feColorMatrix3433"
     type="saturate"
     values="1"
     result="fbSourceGraphic" /><feColorMatrix
     id="feColorMatrix3435"
     in="fbSourceGraphic"
     values="-1 0 0 0 1 0 -1 0 0 1 0 0 -1 0 1 0 0 0 1 0 " /></filter><filter
   id="filter3425"
   color-interpolation-filters="sRGB"
   height="1"
   width="1"
   y="0"
   x="0"><feColorMatrix
     id="feColorMatrix3427"
     type="saturate"
     values="1"
     result="fbSourceGraphic" /><feColorMatrix
     id="feColorMatrix3429"
     in="fbSourceGraphic"
     values="-1 0 0 0 1 0 -1 0 0 1 0 0 -1 0 1 0 0 0 1 0 " /></filter><filter
   id="filter3419"
   color-interpolation-filters="sRGB"
   height="1"
   width="1"
   y="0"
   x="0"><feColorMatrix
     id="feColorMatrix3421"
     type="saturate"
     values="1"
     result="fbSourceGraphic" /><feColorMatrix
     id="feColorMatrix3423"
     in="fbSourceGraphic"
     values="-1 0 0 0 1 0 -1 0 0 1 0 0 -1 0 1 0 0 0 1 0 " /></filter><filter
   id="filter3413"
   color-interpolation-filters="sRGB"
   height="1"
   width="1"
   y="0"
   x="0"><feColorMatrix
     id="feColorMatrix3415"
     type="saturate"
     values="1"
     result="fbSourceGraphic" /><feColorMatrix
     id="feColorMatrix3417"
     in="fbSourceGraphic"
     values="-1 0 0 0 1 0 -1 0 0 1 0 0 -1 0 1 0 0 0 1 0 " /></filter><filter
   id="filter3407"
   color-interpolation-filters="sRGB"
   height="1"
   width="1"
   y="0"
   x="0"><feColorMatrix
     id="feColorMatrix3409"
     type="saturate"
     values="1"
     result="fbSourceGraphic" /><feColorMatrix
     id="feColorMatrix3411"
     in="fbSourceGraphic"
     values="-1 0 0 0 1 0 -1 0 0 1 0 0 -1 0 1 0 0 0 1 0 " /></filter><filter
   id="filter3401"
   color-interpolation-filters="sRGB"
   height="1"
   width="1"
   y="0"
   x="0"><feColorMatrix
     id="feColorMatrix3403"
     type="saturate"
     values="1"
     result="fbSourceGraphic" /><feColorMatrix
     id="feColorMatrix3405"
     in="fbSourceGraphic"
     values="-1 0 0 0 1 0 -1 0 0 1 0 0 -1 0 1 0 0 0 1 0 " /></filter><filter
   id="filter3395"
   color-interpolation-filters="sRGB"
   height="1"
   width="1"
   y="0"
   x="0"><feColorMatrix
     id="feColorMatrix3397"
     type="saturate"
     values="1"
     result="fbSourceGraphic" /><feColorMatrix
     id="feColorMatrix3399"
     in="fbSourceGraphic"
     values="-1 0 0 0 1 0 -1 0 0 1 0 0 -1 0 1 0 0 0 1 0 " /></filter><filter
   id="filter3389"
   color-interpolation-filters="sRGB"
   height="1"
   width="1"
   y="0"
   x="0"><feColorMatrix
     id="feColorMatrix3391"
     type="saturate"
     values="1"
     result="fbSourceGraphic" /><feColorMatrix
     id="feColorMatrix3393"
     in="fbSourceGraphic"
     values="-1 0 0 0 1 0 -1 0 0 1 0 0 -1 0 1 0 0 0 1 0 " /></filter><filter
   id="filter3383"
   color-interpolation-filters="sRGB"
   height="1"
   width="1"
   y="0"
   x="0"><feColorMatrix
     id="feColorMatrix3385"
     type="saturate"
     values="1"
     result="fbSourceGraphic" /><feColorMatrix
     id="feColorMatrix3387"
     in="fbSourceGraphic"
     values="-1 0 0 0 1 0 -1 0 0 1 0 0 -1 0 1 0 0 0 1 0 " /></filter><filter
   id="filter3377"
   color-interpolation-filters="sRGB"
   height="1"
   width="1"
   y="0"
   x="0"><feColorMatrix
     id="feColorMatrix3379"
     type="saturate"
     values="1"
     result="fbSourceGraphic" /><feColorMatrix
     id="feColorMatrix3381"
     in="fbSourceGraphic"
     values="-1 0 0 0 1 0 -1 0 0 1 0 0 -1 0 1 0 0 0 1 0 " /></filter><filter
   id="filter3371"
   color-interpolation-filters="sRGB"
   height="1"
   width="1"
   y="0"
   x="0"><feColorMatrix
     id="feColorMatrix3373"
     type="saturate"
     values="1"
     result="fbSourceGraphic" /><feColorMatrix
     id="feColorMatrix3375"
     in="fbSourceGraphic"
     values="-1 0 0 0 1 0 -1 0 0 1 0 0 -1 0 1 0 0 0 1 0 " /></filter><filter
   id="filter3365"
   color-interpolation-filters="sRGB"
   height="1"
   width="1"
   y="0"
   x="0"><feColorMatrix
     id="feColorMatrix3367"
     type="saturate"
     values="1"
     result="fbSourceGraphic" /><feColorMatrix
     id="feColorMatrix3369"
     in="fbSourceGraphic"
     values="-1 0 0 0 1 0 -1 0 0 1 0 0 -1 0 1 0 0 0 1 0 " /></filter><filter
   id="filter3359"
   color-interpolation-filters="sRGB"
   height="1"
   width="1"
   y="0"
   x="0"><feColorMatrix
     id="feColorMatrix3361"
     type="saturate"
     values="1"
     result="fbSourceGraphic" /><feColorMatrix
     id="feColorMatrix3363"
     in="fbSourceGraphic"
     values="-1 0 0 0 1 0 -1 0 0 1 0 0 -1 0 1 0 0 0 1 0 " /></filter><filter
   id="filter3353"
   color-interpolation-filters="sRGB"
   height="1"
   width="1"
   y="0"
   x="0"><feColorMatrix
     id="feColorMatrix3355"
     type="saturate"
     values="1"
     result="fbSourceGraphic" /><feColorMatrix
     id="feColorMatrix3357"
     in="fbSourceGraphic"
     values="-1 0 0 0 1 0 -1 0 0 1 0 0 -1 0 1 0 0 0 1 0 " /></filter><filter
   id="filter3347"
   color-interpolation-filters="sRGB"
   height="1"
   width="1"
   y="0"
   x="0"><feColorMatrix
     id="feColorMatrix3349"
     type="saturate"
     values="1"
     result="fbSourceGraphic" /><feColorMatrix
     id="feColorMatrix3351"
     in="fbSourceGraphic"
     values="-1 0 0 0 1 0 -1 0 0 1 0 0 -1 0 1 0 0 0 1 0 " /></filter><filter
   id="filter3341"
   color-interpolation-filters="sRGB"
   height="1"
   width="1"
   y="0"
   x="0"><feColorMatrix
     id="feColorMatrix3343"
     type="saturate"
     values="1"
     result="fbSourceGraphic" /><feColorMatrix
     id="feColorMatrix3345"
     in="fbSourceGraphic"
     values="-1 0 0 0 1 0 -1 0 0 1 0 0 -1 0 1 0 0 0 1 0 " /></filter><filter
   id="filter3335"
   color-interpolation-filters="sRGB"
   height="1"
   width="1"
   y="0"
   x="0"><feColorMatrix
     id="feColorMatrix3337"
     type="saturate"
     values="1"
     result="fbSourceGraphic" /><feColorMatrix
     id="feColorMatrix3339"
     in="fbSourceGraphic"
     values="-1 0 0 0 1 0 -1 0 0 1 0 0 -1 0 1 0 0 0 1 0 " /></filter><filter
   id="filter3329"
   color-interpolation-filters="sRGB"
   height="1"
   width="1"
   y="0"
   x="0"><feColorMatrix
     id="feColorMatrix3331"
     type="saturate"
     values="1"
     result="fbSourceGraphic" /><feColorMatrix
     id="feColorMatrix3333"
     in="fbSourceGraphic"
     values="-1 0 0 0 1 0 -1 0 0 1 0 0 -1 0 1 0 0 0 1 0 " /></filter><filter
   id="filter3323"
   color-interpolation-filters="sRGB"
   height="1"
   width="1"
   y="0"
   x="0"><feColorMatrix
     id="feColorMatrix3325"
     type="saturate"
     values="1"
     result="fbSourceGraphic" /><feColorMatrix
     id="feColorMatrix3327"
     in="fbSourceGraphic"
     values="-1 0 0 0 1 0 -1 0 0 1 0 0 -1 0 1 0 0 0 1 0 " /></filter><filter
   id="filter3317"
   color-interpolation-filters="sRGB"
   height="1"
   width="1"
   y="0"
   x="0"><feColorMatrix
     id="feColorMatrix3319"
     type="saturate"
     values="1"
     result="fbSourceGraphic" /><feColorMatrix
     id="feColorMatrix3321"
     in="fbSourceGraphic"
     values="-1 0 0 0 1 0 -1 0 0 1 0 0 -1 0 1 0 0 0 1 0 " /></filter><filter
   id="filter3311"
   color-interpolation-filters="sRGB"
   height="1"
   width="1"
   y="0"
   x="0"><feColorMatrix
     id="feColorMatrix3313"
     type="saturate"
     values="1"
     result="fbSourceGraphic" /><feColorMatrix
     id="feColorMatrix3315"
     in="fbSourceGraphic"
     values="-1 0 0 0 1 0 -1 0 0 1 0 0 -1 0 1 0 0 0 1 0 " /></filter><filter
   id="filter3305"
   color-interpolation-filters="sRGB"
   height="1"
   width="1"
   y="0"
   x="0"><feColorMatrix
     id="feColorMatrix3307"
     type="saturate"
     values="1"
     result="fbSourceGraphic" /><feColorMatrix
     id="feColorMatrix3309"
     in="fbSourceGraphic"
     values="-1 0 0 0 1 0 -1 0 0 1 0 0 -1 0 1 0 0 0 1 0 " /></filter><filter
   id="filter3299"
   color-interpolation-filters="sRGB"
   height="1"
   width="1"
   y="0"
   x="0"><feColorMatrix
     id="feColorMatrix3301"
     type="saturate"
     values="1"
     result="fbSourceGraphic" /><feColorMatrix
     id="feColorMatrix3303"
     in="fbSourceGraphic"
     values="-1 0 0 0 1 0 -1 0 0 1 0 0 -1 0 1 0 0 0 1 0 " /></filter><filter
   id="filter3293"
   color-interpolation-filters="sRGB"
   height="1"
   width="1"
   y="0"
   x="0"><feColorMatrix
     id="feColorMatrix3295"
     type="saturate"
     values="1"
     result="fbSourceGraphic" /><feColorMatrix
     id="feColorMatrix3297"
     in="fbSourceGraphic"
     values="-1 0 0 0 1 0 -1 0 0 1 0 0 -1 0 1 0 0 0 1 0 " /></filter><filter
   id="filter3287"
   color-interpolation-filters="sRGB"
   height="1"
   width="1"
   y="0"
   x="0"><feColorMatrix
     id="feColorMatrix3289"
     type="saturate"
     values="1"
     result="fbSourceGraphic" /><feColorMatrix
     id="feColorMatrix3291"
     in="fbSourceGraphic"
     values="-1 0 0 0 1 0 -1 0 0 1 0 0 -1 0 1 0 0 0 1 0 " /></filter><filter
   id="filter3281"
   color-interpolation-filters="sRGB"
   height="1"
   width="1"
   y="0"
   x="0"><feColorMatrix
     id="feColorMatrix3283"
     type="saturate"
     values="1"
     result="fbSourceGraphic" /><feColorMatrix
     id="feColorMatrix3285"
     in="fbSourceGraphic"
     values="-1 0 0 0 1 0 -1 0 0 1 0 0 -1 0 1 0 0 0 1 0 " /></filter><filter
   id="filter3275"
   color-interpolation-filters="sRGB"
   height="1"
   width="1"
   y="0"
   x="0"><feColorMatrix
     id="feColorMatrix3277"
     type="saturate"
     values="1"
     result="fbSourceGraphic" /><feColorMatrix
     id="feColorMatrix3279"
     in="fbSourceGraphic"
     values="-1 0 0 0 1 0 -1 0 0 1 0 0 -1 0 1 0 0 0 1 0 " /></filter><filter
   id="filter3269"
   color-interpolation-filters="sRGB"
   height="1"
   width="1"
   y="0"
   x="0"><feColorMatrix
     id="feColorMatrix3271"
     type="saturate"
     values="1"
     result="fbSourceGraphic" /><feColorMatrix
     id="feColorMatrix3273"
     in="fbSourceGraphic"
     values="-1 0 0 0 1 0 -1 0 0 1 0 0 -1 0 1 0 0 0 1 0 " /></filter><filter
   id="filter3263"
   color-interpolation-filters="sRGB"
   height="1"
   width="1"
   y="0"
   x="0"><feColorMatrix
     id="feColorMatrix3265"
     type="saturate"
     values="1"
     result="fbSourceGraphic" /><feColorMatrix
     id="feColorMatrix3267"
     in="fbSourceGraphic"
     values="-1 0 0 0 1 0 -1 0 0 1 0 0 -1 0 1 0 0 0 1 0 " /></filter><filter
   id="filter3257"
   color-interpolation-filters="sRGB"
   height="1"
   width="1"
   y="0"
   x="0"><feColorMatrix
     id="feColorMatrix3259"
     type="saturate"
     values="1"
     result="fbSourceGraphic" /><feColorMatrix
     id="feColorMatrix3261"
     in="fbSourceGraphic"
     values="-1 0 0 0 1 0 -1 0 0 1 0 0 -1 0 1 0 0 0 1 0 " /></filter><filter
   id="filter3251"
   color-interpolation-filters="sRGB"
   height="1"
   width="1"
   y="0"
   x="0"><feColorMatrix
     id="feColorMatrix3253"
     type="saturate"
     values="1"
     result="fbSourceGraphic" /><feColorMatrix
     id="feColorMatrix3255"
     in="fbSourceGraphic"
     values="-1 0 0 0 1 0 -1 0 0 1 0 0 -1 0 1 0 0 0 1 0 " /></filter><filter
   id="filter3245"
   color-interpolation-filters="sRGB"
   height="1"
   width="1"
   y="0"
   x="0"><feColorMatrix
     id="feColorMatrix3247"
     type="saturate"
     values="1"
     result="fbSourceGraphic" /><feColorMatrix
     id="feColorMatrix3249"
     in="fbSourceGraphic"
     values="-1 0 0 0 1 0 -1 0 0 1 0 0 -1 0 1 0 0 0 1 0 " /></filter><filter
   id="filter3239"
   color-interpolation-filters="sRGB"
   height="1"
   width="1"
   y="0"
   x="0"><feColorMatrix
     id="feColorMatrix3241"
     type="saturate"
     values="1"
     result="fbSourceGraphic" /><feColorMatrix
     id="feColorMatrix3243"
     in="fbSourceGraphic"
     values="-1 0 0 0 1 0 -1 0 0 1 0 0 -1 0 1 0 0 0 1 0 " /></filter><filter
   id="filter3233"
   color-interpolation-filters="sRGB"
   height="1"
   width="1"
   y="0"
   x="0"><feColorMatrix
     id="feColorMatrix3235"
     type="saturate"
     values="1"
     result="fbSourceGraphic" /><feColorMatrix
     id="feColorMatrix3237"
     in="fbSourceGraphic"
     values="-1 0 0 0 1 0 -1 0 0 1 0 0 -1 0 1 0 0 0 1 0 " /></filter><filter
   id="filter3227"
   color-interpolation-filters="sRGB"
   height="1"
   width="1"
   y="0"
   x="0"><feColorMatrix
     id="feColorMatrix3229"
     type="saturate"
     values="1"
     result="fbSourceGraphic" /><feColorMatrix
     id="feColorMatrix3231"
     in="fbSourceGraphic"
     values="-1 0 0 0 1 0 -1 0 0 1 0 0 -1 0 1 0 0 0 1 0 " /></filter><filter
   id="filter3221"
   color-interpolation-filters="sRGB"
   height="1"
   width="1"
   y="0"
   x="0"><feColorMatrix
     id="feColorMatrix3223"
     type="saturate"
     values="1"
     result="fbSourceGraphic" /><feColorMatrix
     id="feColorMatrix3225"
     in="fbSourceGraphic"
     values="-1 0 0 0 1 0 -1 0 0 1 0 0 -1 0 1 0 0 0 1 0 " /></filter><filter
   id="filter3215"
   color-interpolation-filters="sRGB"
   height="1"
   width="1"
   y="0"
   x="0"><feColorMatrix
     id="feColorMatrix3217"
     type="saturate"
     values="1"
     result="fbSourceGraphic" /><feColorMatrix
     id="feColorMatrix3219"
     in="fbSourceGraphic"
     values="-1 0 0 0 1 0 -1 0 0 1 0 0 -1 0 1 0 0 0 1 0 " /></filter><filter
   id="filter3209"
   color-interpolation-filters="sRGB"
   height="1"
   width="1"
   y="0"
   x="0"><feColorMatrix
     id="feColorMatrix3211"
     type="saturate"
     values="1"
     result="fbSourceGraphic" /><feColorMatrix
     id="feColorMatrix3213"
     in="fbSourceGraphic"
     values="-1 0 0 0 1 0 -1 0 0 1 0 0 -1 0 1 0 0 0 1 0 " /></filter><filter
   id="filter3203"
   color-interpolation-filters="sRGB"
   height="1"
   width="1"
   y="0"
   x="0"><feColorMatrix
     id="feColorMatrix3205"
     type="saturate"
     values="1"
     result="fbSourceGraphic" /><feColorMatrix
     id="feColorMatrix3207"
     in="fbSourceGraphic"
     values="-1 0 0 0 1 0 -1 0 0 1 0 0 -1 0 1 0 0 0 1 0 " /></filter><filter
   id="filter3197"
   color-interpolation-filters="sRGB"
   height="1"
   width="1"
   y="0"
   x="0"><feColorMatrix
     id="feColorMatrix3199"
     type="saturate"
     values="1"
     result="fbSourceGraphic" /><feColorMatrix
     id="feColorMatrix3201"
     in="fbSourceGraphic"
     values="-1 0 0 0 1 0 -1 0 0 1 0 0 -1 0 1 0 0 0 1 0 " /></filter><filter
   id="filter3191"
   color-interpolation-filters="sRGB"
   height="1"
   width="1"
   y="0"
   x="0"><feColorMatrix
     id="feColorMatrix3193"
     type="saturate"
     values="1"
     result="fbSourceGraphic" /><feColorMatrix
     id="feColorMatrix3195"
     in="fbSourceGraphic"
     values="-1 0 0 0 1 0 -1 0 0 1 0 0 -1 0 1 0 0 0 1 0 " /></filter><filter
   id="filter3185"
   color-interpolation-filters="sRGB"
   height="1"
   width="1"
   y="0"
   x="0"><feColorMatrix
     id="feColorMatrix3187"
     type="saturate"
     values="1"
     result="fbSourceGraphic" /><feColorMatrix
     id="feColorMatrix3189"
     in="fbSourceGraphic"
     values="-1 0 0 0 1 0 -1 0 0 1 0 0 -1 0 1 0 0 0 1 0 " /></filter><filter
   id="filter3179"
   color-interpolation-filters="sRGB"
   height="1"
   width="1"
   y="0"
   x="0"><feColorMatrix
     id="feColorMatrix3181"
     type="saturate"
     values="1"
     result="fbSourceGraphic" /><feColorMatrix
     id="feColorMatrix3183"
     in="fbSourceGraphic"
     values="-1 0 0 0 1 0 -1 0 0 1 0 0 -1 0 1 0 0 0 1 0 " /></filter><filter
   id="filter3173"
   color-interpolation-filters="sRGB"
   height="1"
   width="1"
   y="0"
   x="0"><feColorMatrix
     id="feColorMatrix3175"
     type="saturate"
     values="1"
     result="fbSourceGraphic" /><feColorMatrix
     id="feColorMatrix3177"
     in="fbSourceGraphic"
     values="-1 0 0 0 1 0 -1 0 0 1 0 0 -1 0 1 0 0 0 1 0 " /></filter><clipPath
   id="clipPath16-8"><path
     id="path18-5"
     d="M 0,600 600,600 600,0 0,0 0,600 z"
     inkscape:connector-curvature="0" /></clipPath><clipPath
   id="clipPath852"
   clipPathUnits="userSpaceOnUse"><path
     inkscape:connector-curvature="0"
     id="path854"
     d="m 108,433.32 576,0 0,534.66 -576,0 0,-534.66 z" /></clipPath><clipPath
   id="clipPath842"
   clipPathUnits="userSpaceOnUse"><path
     inkscape:connector-curvature="0"
     id="path844-5"
     d="m 532.02,18.00003 195.9,0 0,24.48 -195.9,0 0,-24.48 z" /></clipPath><clipPath
   id="clipPath828"
   clipPathUnits="userSpaceOnUse"><path
     inkscape:connector-curvature="0"
     id="path830"
     d="m 532.02,18.00003 195.9,0 0,24.48 -195.9,0 0,-24.48 z" /></clipPath><clipPath
   id="clipPath818"
   clipPathUnits="userSpaceOnUse"><path
     inkscape:connector-curvature="0"
     id="path820-2"
     d="m 124.74,1096.92 248.46,0 0,45.12 -248.46,0 0,-45.12 z" /></clipPath><clipPath
   id="clipPath804"
   clipPathUnits="userSpaceOnUse"><path
     inkscape:connector-curvature="0"
     id="path806"
     d="m 124.74,1096.92 248.46,0 0,45.12 -248.46,0 0,-45.12 z" /></clipPath><clipPath
   id="clipPath790"
   clipPathUnits="userSpaceOnUse"><path
     inkscape:connector-curvature="0"
     id="path792-0"
     d="m 124.74,1096.92 248.46,0 0,45.12 -248.46,0 0,-45.12 z" /></clipPath><clipPath
   id="clipPath780"
   clipPathUnits="userSpaceOnUse"><path
     inkscape:connector-curvature="0"
     id="path782"
     d="m 124.74,1096.92 248.46,0 0,45.12 -248.46,0 0,-45.12 z" /></clipPath><clipPath
   id="clipPath766"
   clipPathUnits="userSpaceOnUse"><path
     inkscape:connector-curvature="0"
     id="path768-4"
     d="m 124.74,1096.92 248.46,0 0,45.12 -248.46,0 0,-45.12 z" /></clipPath><clipPath
   id="clipPath752"
   clipPathUnits="userSpaceOnUse"><path
     inkscape:connector-curvature="0"
     id="path754"
     d="m 124.74,1096.92 248.46,0 0,45.12 -248.46,0 0,-45.12 z" /></clipPath><clipPath
   id="clipPath738"
   clipPathUnits="userSpaceOnUse"><path
     inkscape:connector-curvature="0"
     id="path740-8"
     d="m 124.74,1096.92 248.46,0 0,45.12 -248.46,0 0,-45.12 z" /></clipPath><clipPath
   id="clipPath724"
   clipPathUnits="userSpaceOnUse"><path
     inkscape:connector-curvature="0"
     id="path726"
     d="m 124.74,1096.92 248.46,0 0,45.12 -248.46,0 0,-45.12 z" /></clipPath><clipPath
   id="clipPath714"
   clipPathUnits="userSpaceOnUse"><path
     inkscape:connector-curvature="0"
     id="path716-6"
     d="m 51.12,43.20003 687,0 0,155.28 -687,0 0,-155.28 z" /></clipPath><clipPath
   id="clipPath700"
   clipPathUnits="userSpaceOnUse"><path
     inkscape:connector-curvature="0"
     id="path702"
     d="m 51.12,43.20003 687,0 0,155.28 -687,0 0,-155.28 z" /></clipPath><clipPath
   id="clipPath686"
   clipPathUnits="userSpaceOnUse"><path
     inkscape:connector-curvature="0"
     id="path688-1"
     d="m 51.12,43.20003 687,0 0,155.28 -687,0 0,-155.28 z" /></clipPath><clipPath
   id="clipPath672"
   clipPathUnits="userSpaceOnUse"><path
     inkscape:connector-curvature="0"
     id="path674"
     d="m 51.12,43.20003 687,0 0,155.28 -687,0 0,-155.28 z" /></clipPath><clipPath
   id="clipPath658"
   clipPathUnits="userSpaceOnUse"><path
     inkscape:connector-curvature="0"
     id="path660-3"
     d="m 51.12,43.20003 687,0 0,155.28 -687,0 0,-155.28 z" /></clipPath><clipPath
   id="clipPath644"
   clipPathUnits="userSpaceOnUse"><path
     inkscape:connector-curvature="0"
     id="path646"
     d="m 51.12,43.20003 687,0 0,155.28 -687,0 0,-155.28 z" /></clipPath><clipPath
   id="clipPath630"
   clipPathUnits="userSpaceOnUse"><path
     inkscape:connector-curvature="0"
     id="path632-2"
     d="m 51.12,43.20003 687,0 0,155.28 -687,0 0,-155.28 z" /></clipPath><clipPath
   id="clipPath620"
   clipPathUnits="userSpaceOnUse"><path
     inkscape:connector-curvature="0"
     id="path622"
     d="m 51.12,43.20003 687,0 0,155.28 -687,0 0,-155.28 z" /></clipPath><clipPath
   id="clipPath606"
   clipPathUnits="userSpaceOnUse"><path
     inkscape:connector-curvature="0"
     id="path608-9"
     d="m 51.12,43.20003 687,0 0,155.28 -687,0 0,-155.28 z" /></clipPath><clipPath
   id="clipPath596"
   clipPathUnits="userSpaceOnUse"><path
     inkscape:connector-curvature="0"
     id="path598"
     d="m 51.12,43.20003 687,0 0,155.28 -687,0 0,-155.28 z" /></clipPath><clipPath
   id="clipPath582"
   clipPathUnits="userSpaceOnUse"><path
     inkscape:connector-curvature="0"
     id="path584-8"
     d="m 51.12,43.20003 687,0 0,155.28 -687,0 0,-155.28 z" /></clipPath><clipPath
   id="clipPath572"
   clipPathUnits="userSpaceOnUse"><path
     inkscape:connector-curvature="0"
     id="path574"
     d="m 51.12,43.20003 687,0 0,155.28 -687,0 0,-155.28 z" /></clipPath><clipPath
   id="clipPath558"
   clipPathUnits="userSpaceOnUse"><path
     inkscape:connector-curvature="0"
     id="path560-2"
     d="m 51.12,43.20003 687,0 0,155.28 -687,0 0,-155.28 z" /></clipPath><clipPath
   id="clipPath548"
   clipPathUnits="userSpaceOnUse"><path
     inkscape:connector-curvature="0"
     id="path550"
     d="m 51.12,43.20003 687,0 0,155.28 -687,0 0,-155.28 z" /></clipPath><clipPath
   id="clipPath534"
   clipPathUnits="userSpaceOnUse"><path
     inkscape:connector-curvature="0"
     id="path536-7"
     d="m 51.12,43.20003 687,0 0,155.28 -687,0 0,-155.28 z" /></clipPath><clipPath
   id="clipPath524"
   clipPathUnits="userSpaceOnUse"><path
     inkscape:connector-curvature="0"
     id="path526"
     d="m 51.12,43.20003 687,0 0,155.28 -687,0 0,-155.28 z" /></clipPath><clipPath
   id="clipPath510"
   clipPathUnits="userSpaceOnUse"><path
     inkscape:connector-curvature="0"
     id="path512-5"
     d="m 51.12,43.20003 687,0 0,155.28 -687,0 0,-155.28 z" /></clipPath><clipPath
   id="clipPath496"
   clipPathUnits="userSpaceOnUse"><path
     inkscape:connector-curvature="0"
     id="path498"
     d="m 51.12,43.20003 687,0 0,155.28 -687,0 0,-155.28 z" /></clipPath><clipPath
   id="clipPath482"
   clipPathUnits="userSpaceOnUse"><path
     inkscape:connector-curvature="0"
     id="path484-5"
     d="m 51.12,43.20003 687,0 0,155.28 -687,0 0,-155.28 z" /></clipPath><clipPath
   id="clipPath472"
   clipPathUnits="userSpaceOnUse"><path
     inkscape:connector-curvature="0"
     id="path474"
     d="m 68.1,1146.72 283.68,0 0,32.52 -283.68,0 0,-32.52 z" /></clipPath><clipPath
   id="clipPath458"
   clipPathUnits="userSpaceOnUse"><path
     inkscape:connector-curvature="0"
     id="path460-8"
     d="m 68.1,1146.72 283.68,0 0,32.52 -283.68,0 0,-32.52 z" /></clipPath><clipPath
   id="clipPath444"
   clipPathUnits="userSpaceOnUse"><path
     inkscape:connector-curvature="0"
     id="path446-1"
     d="m 68.1,1146.72 283.68,0 0,32.52 -283.68,0 0,-32.52 z" /></clipPath><clipPath
   id="clipPath434"
   clipPathUnits="userSpaceOnUse"><path
     inkscape:connector-curvature="0"
     id="path436-7"
     d="m 52.44,210.18 687,0 0,54.42001 -687,0 0,-54.42001 z" /></clipPath><clipPath
   id="clipPath420"
   clipPathUnits="userSpaceOnUse"><path
     inkscape:connector-curvature="0"
     id="path422-5"
     d="m 52.44,210.18 687,0 0,54.42001 -687,0 0,-54.42001 z" /></clipPath><clipPath
   id="clipPath406"
   clipPathUnits="userSpaceOnUse"><path
     inkscape:connector-curvature="0"
     id="path408"
     d="m 52.44,210.18 687,0 0,54.42001 -687,0 0,-54.42001 z" /></clipPath><clipPath
   id="clipPath392"
   clipPathUnits="userSpaceOnUse"><path
     inkscape:connector-curvature="0"
     id="path394-0"
     d="m 52.44,210.18 687,0 0,54.42001 -687,0 0,-54.42001 z" /></clipPath><clipPath
   id="clipPath378"
   clipPathUnits="userSpaceOnUse"><path
     inkscape:connector-curvature="0"
     id="path380"
     d="m 52.44,210.18 687,0 0,54.42001 -687,0 0,-54.42001 z" /></clipPath><clipPath
   id="clipPath364"
   clipPathUnits="userSpaceOnUse"><path
     inkscape:connector-curvature="0"
     id="path366-0"
     d="m 52.44,210.18 687,0 0,54.42001 -687,0 0,-54.42001 z" /></clipPath><clipPath
   id="clipPath354"
   clipPathUnits="userSpaceOnUse"><path
     inkscape:connector-curvature="0"
     id="path356"
     d="m 52.44,210.18 687,0 0,54.42001 -687,0 0,-54.42001 z" /></clipPath><clipPath
   id="clipPath340"
   clipPathUnits="userSpaceOnUse"><path
     inkscape:connector-curvature="0"
     id="path342-0"
     d="m 52.44,210.18 687,0 0,54.42001 -687,0 0,-54.42001 z" /></clipPath><clipPath
   id="clipPath330"
   clipPathUnits="userSpaceOnUse"><path
     inkscape:connector-curvature="0"
     id="path332-5"
     d="m 56.04,993.24 679.5,0 0,112.38 -679.5,0 0,-112.38 z" /></clipPath><clipPath
   id="clipPath316"
   clipPathUnits="userSpaceOnUse"><path
     inkscape:connector-curvature="0"
     id="path318-6"
     d="m 56.04,993.24 679.5,0 0,112.38 -679.5,0 0,-112.38 z" /></clipPath><clipPath
   id="clipPath306"
   clipPathUnits="userSpaceOnUse"><path
     inkscape:connector-curvature="0"
     id="path308-8"
     d="m 18,18.00003 756,0 L 774,1206 18,1206 18,18.00003 z" /></clipPath><clipPath
   id="clipPath296"
   clipPathUnits="userSpaceOnUse"><path
     inkscape:connector-curvature="0"
     id="path298-5"
     d="m 52.62,261.66 687,0 0,128.58 -687,0 0,-128.58 z" /></clipPath><clipPath
   id="clipPath282"
   clipPathUnits="userSpaceOnUse"><path
     inkscape:connector-curvature="0"
     id="path284"
     d="m 52.62,261.66 687,0 0,128.58 -687,0 0,-128.58 z" /></clipPath><clipPath
   id="clipPath268"
   clipPathUnits="userSpaceOnUse"><path
     inkscape:connector-curvature="0"
     id="path270-0"
     d="m 52.62,261.66 687,0 0,128.58 -687,0 0,-128.58 z" /></clipPath><clipPath
   id="clipPath254"
   clipPathUnits="userSpaceOnUse"><path
     inkscape:connector-curvature="0"
     id="path256"
     d="m 52.62,261.66 687,0 0,128.58 -687,0 0,-128.58 z" /></clipPath><clipPath
   id="clipPath240"
   clipPathUnits="userSpaceOnUse"><path
     inkscape:connector-curvature="0"
     id="path242-4"
     d="m 52.62,261.66 687,0 0,128.58 -687,0 0,-128.58 z" /></clipPath><clipPath
   id="clipPath230"
   clipPathUnits="userSpaceOnUse"><path
     inkscape:connector-curvature="0"
     id="path232"
     d="m 52.62,261.66 687,0 0,128.58 -687,0 0,-128.58 z" /></clipPath><clipPath
   id="clipPath216"
   clipPathUnits="userSpaceOnUse"><path
     inkscape:connector-curvature="0"
     id="path218-7"
     d="m 52.62,261.66 687,0 0,128.58 -687,0 0,-128.58 z" /></clipPath><clipPath
   id="clipPath202"
   clipPathUnits="userSpaceOnUse"><path
     inkscape:connector-curvature="0"
     id="path204"
     d="m 52.62,261.66 687,0 0,128.58 -687,0 0,-128.58 z" /></clipPath><clipPath
   id="clipPath188"
   clipPathUnits="userSpaceOnUse"><path
     inkscape:connector-curvature="0"
     id="path190-0"
     d="m 52.62,261.66 687,0 0,128.58 -687,0 0,-128.58 z" /></clipPath><clipPath
   id="clipPath174"
   clipPathUnits="userSpaceOnUse"><path
     inkscape:connector-curvature="0"
     id="path176"
     d="m 52.62,261.66 687,0 0,128.58 -687,0 0,-128.58 z" /></clipPath><clipPath
   id="clipPath160"
   clipPathUnits="userSpaceOnUse"><path
     inkscape:connector-curvature="0"
     id="path162-3"
     d="m 52.62,261.66 687,0 0,128.58 -687,0 0,-128.58 z" /></clipPath><clipPath
   id="clipPath146"
   clipPathUnits="userSpaceOnUse"><path
     inkscape:connector-curvature="0"
     id="path148"
     d="m 52.62,261.66 687,0 0,128.58 -687,0 0,-128.58 z" /></clipPath><clipPath
   id="clipPath136"
   clipPathUnits="userSpaceOnUse"><path
     inkscape:connector-curvature="0"
     id="path138"
     d="m 52.62,261.66 687,0 0,128.58 -687,0 0,-128.58 z" /></clipPath><clipPath
   id="clipPath122"
   clipPathUnits="userSpaceOnUse"><path
     inkscape:connector-curvature="0"
     id="path124"
     d="m 52.62,261.66 687,0 0,128.58 -687,0 0,-128.58 z" /></clipPath><clipPath
   id="clipPath108"
   clipPathUnits="userSpaceOnUse"><path
     inkscape:connector-curvature="0"
     id="path110-3"
     d="m 52.62,261.66 687,0 0,128.58 -687,0 0,-128.58 z" /></clipPath><clipPath
   id="clipPath94"
   clipPathUnits="userSpaceOnUse"><path
     inkscape:connector-curvature="0"
     id="path96"
     d="m 52.62,261.66 687,0 0,128.58 -687,0 0,-128.58 z" /></clipPath><clipPath
   id="clipPath84"
   clipPathUnits="userSpaceOnUse"><path
     inkscape:connector-curvature="0"
     id="path86"
     d="m 52.62,261.66 687,0 0,128.58 -687,0 0,-128.58 z" /></clipPath><clipPath
   id="clipPath70"
   clipPathUnits="userSpaceOnUse"><path
     inkscape:connector-curvature="0"
     id="path72"
     d="m 52.62,261.66 687,0 0,128.58 -687,0 0,-128.58 z" /></clipPath><clipPath
   id="clipPath60"
   clipPathUnits="userSpaceOnUse"><path
     inkscape:connector-curvature="0"
     id="path62-3"
     d="m 52.62,261.66 687,0 0,128.58 -687,0 0,-128.58 z" /></clipPath><clipPath
   id="clipPath46"
   clipPathUnits="userSpaceOnUse"><path
     inkscape:connector-curvature="0"
     id="path48"
     d="m 52.62,261.66 687,0 0,128.58 -687,0 0,-128.58 z" /></clipPath><clipPath
   id="clipPath32"
   clipPathUnits="userSpaceOnUse"><path
     inkscape:connector-curvature="0"
     id="path34"
     d="m 52.62,261.66 687,0 0,128.58 -687,0 0,-128.58 z" /></clipPath><clipPath
   id="clipPath18"
   clipPathUnits="userSpaceOnUse"><path
     inkscape:connector-curvature="0"
     id="path20"
     d="m 52.62,261.66 687,0 0,128.58 -687,0 0,-128.58 z" /></clipPath><clipPath
   id="clipPath16-0"
   clipPathUnits="userSpaceOnUse"><path
     inkscape:connector-curvature="0"
     id="path18"
     d="M 0,600 600,600 600,0 0,0 0,600 z" /></clipPath><clipPath
   id="clipPath678"><path
     id="path680"
     d="m 97.4,403 596.6,0 0,578 -596.6,0 0,-578 z"
     inkscape:connector-curvature="0" /></clipPath><clipPath
   id="clipPath668"><path
     id="path670"
     d="m 203.1,205 385.9,0 0,4.99998 -385.9,0 0,-4.99998 z"
     inkscape:connector-curvature="0" /></clipPath><clipPath
   id="clipPath658-0"><path
     id="path660"
     d="m 203,270 386,0 0,4.09998 -386,0 L 203,270 z"
     inkscape:connector-curvature="0" /></clipPath><clipPath
   id="clipPath644-1"><path
     id="path646-1"
     d="m 0,0 792.5,0 0,1224.5 L 0,1224.5 0,0 z"
     inkscape:connector-curvature="0" /></clipPath><clipPath
   id="clipPath632"><path
     id="path634"
     d="m 534.3,10.39998 191.5,0 0,32.6 -191.5,0 0,-32.6 z"
     inkscape:connector-curvature="0" /></clipPath><clipPath
   id="clipPath588"><path
     id="path590"
     d="m 0,0 792.5,0 0,1224.5 L 0,1224.5 0,0 z"
     inkscape:connector-curvature="0" /></clipPath><clipPath
   id="clipPath576"><path
     id="path578"
     d="m 127,1097.3 244.1,0 0,45.2 -244.1,0 0,-45.2 z"
     inkscape:connector-curvature="0" /></clipPath><clipPath
   id="clipPath538"><path
     id="path540"
     d="m 0,0 792.5,0 0,1224.5 L 0,1224.5 0,0 z"
     inkscape:connector-curvature="0" /></clipPath><clipPath
   id="clipPath526"><path
     id="path528"
     d="m 54.7,53.19998 682.6,0 0,145.8 -682.6,0 0,-145.8 z"
     inkscape:connector-curvature="0" /></clipPath><clipPath
   id="clipPath506"><path
     id="path508"
     d="m 0,0 792.5,0 0,1224.5 L 0,1224.5 0,0 z"
     inkscape:connector-curvature="0" /></clipPath><clipPath
   id="clipPath494"><path
     id="path496"
     d="m 70.4,1147.1 279.3,0 0,32.6 -279.3,0 0,-32.6 z"
     inkscape:connector-curvature="0" /></clipPath><clipPath
   id="clipPath450"><path
     id="path452"
     d="m 0,0 792.5,0 0,1224.5 L 0,1224.5 0,0 z"
     inkscape:connector-curvature="0" /></clipPath><clipPath
   id="clipPath438"><path
     id="path440"
     d="m 54.7,214.5 682.6,0 0,50.59999 -682.6,0 0,-50.59999 z"
     inkscape:connector-curvature="0" /></clipPath><clipPath
   id="clipPath424"><path
     id="path426"
     d="m 371.1,1097.3 299.6,0 0,8.7999 -299.6,0 0,-8.7999 z"
     inkscape:connector-curvature="0" /></clipPath><clipPath
   id="clipPath410"><path
     id="path412"
     d="m 121.1,1097.3 6,0 0,8.7999 -6,0 0,-8.7999 z"
     inkscape:connector-curvature="0" /></clipPath><clipPath
   id="clipPath396"><path
     id="path398"
     d="m 121.1,993.6 549.6,0 0,103.7001 -549.6,0 0,-103.7001 z"
     inkscape:connector-curvature="0" /></clipPath><clipPath
   id="clipPath384"><path
     id="path386"
     d="m 371.1,1097.3 362.3,0 0,8.7999 -362.3,0 0,-8.7999 z"
     inkscape:connector-curvature="0" /></clipPath><clipPath
   id="clipPath372"><path
     id="path374"
     d="m 58.3,1097.3 68.7,0 0,8.7999 -68.7,0 0,-8.7999 z"
     inkscape:connector-curvature="0" /></clipPath><clipPath
   id="clipPath360"><path
     id="path362"
     d="m 58.3,993.6 675.1,0 0,103.7001 -675.1,0 0,-103.7001 z"
     inkscape:connector-curvature="0" /></clipPath><clipPath
   id="clipPath246"><path
     id="path248"
     d="m 0,0 792.5,0 0,1224.5 L 0,1224.5 0,0 z"
     inkscape:connector-curvature="0" /></clipPath><clipPath
   id="clipPath234"><path
     id="path236"
     d="m 54.7,280.5 682.6,0 0,110.2 -682.6,0 0,-110.2 z"
     inkscape:connector-curvature="0" /></clipPath><clipPath
   id="clipPath222"><path
     id="path224"
     d="m 371.1,1106.1 420.9,0 0,36.4 -420.9,0 0,-36.4 z"
     inkscape:connector-curvature="0" /></clipPath><clipPath
   id="clipPath210"><path
     id="path212"
     d="m 0,1106.1 127,0 0,36.4 -127,0 0,-36.4 z"
     inkscape:connector-curvature="0" /></clipPath><clipPath
   id="clipPath198"><path
     id="path200"
     d="m 737.3,53.19998 54.70001,0 0,145.8 -54.70001,0 0,-145.8 z"
     inkscape:connector-curvature="0" /></clipPath><clipPath
   id="clipPath186"><path
     id="path188"
     d="m 0,53.19998 54.7,0 0,145.8 -54.7,0 0,-145.8 z"
     inkscape:connector-curvature="0" /></clipPath><clipPath
   id="clipPath174-5"><path
     id="path176-2"
     d="m 0,42.99998 792,0 0,10.2 -792,0 0,-10.2 z"
     inkscape:connector-curvature="0" /></clipPath><clipPath
   id="clipPath162"><path
     id="path164"
     d="m 725.8,10.39998 66.20001,0 0,32.6 -66.20001,0 0,-32.6 z"
     inkscape:connector-curvature="0" /></clipPath><clipPath
   id="clipPath150"><path
     id="path152"
     d="m 0,10.39998 534.3,0 0,32.6 -534.3,0 0,-32.6 z"
     inkscape:connector-curvature="0" /></clipPath><clipPath
   id="clipPath138"><path
     id="path140"
     d="m 0,1 792,0 0,9.399983 -792,0 L 0,1 z"
     inkscape:connector-curvature="0" /></clipPath><clipPath
   id="clipPath126"><path
     id="path128"
     d="m 349.7,1147.1 442.3,0 0,32.6 -442.3,0 0,-32.6 z"
     inkscape:connector-curvature="0" /></clipPath><clipPath
   id="clipPath114"><path
     id="path116"
     d="m 0,1147.1 70.4,0 0,32.6 -70.4,0 0,-32.6 z"
     inkscape:connector-curvature="0" /></clipPath><clipPath
   id="clipPath102"><path
     id="path104"
     d="m 0,1142.5 792,0 0,4.6 -792,0 0,-4.6 z"
     inkscape:connector-curvature="0" /></clipPath><clipPath
   id="clipPath90"><path
     id="path92"
     d="m 737.3,214.5 54.70001,0 0,50.59999 -54.70001,0 0,-50.59999 z"
     inkscape:connector-curvature="0" /></clipPath><clipPath
   id="clipPath78"><path
     id="path80"
     d="m 0,214.5 54.7,0 0,50.59999 -54.7,0 L 0,214.5 z"
     inkscape:connector-curvature="0" /></clipPath><clipPath
   id="clipPath66"><path
     id="path68"
     d="m 0,199 792,0 0,15.5 -792,0 0,-15.5 z"
     inkscape:connector-curvature="0" /></clipPath><clipPath
   id="clipPath54"><path
     id="path56"
     d="m 733.4,993.6 58.59998,0 0,112.5 -58.59998,0 0,-112.5 z"
     inkscape:connector-curvature="0" /></clipPath><clipPath
   id="clipPath42"><path
     id="path44"
     d="m 0,993.6 58.3,0 0,112.5 -58.3,0 0,-112.5 z"
     inkscape:connector-curvature="0" /></clipPath><clipPath
   id="clipPath30"><path
     id="path32"
     d="m 0,265.1 792,0 0,728.5 -792,0 0,-728.5 z"
     inkscape:connector-curvature="0" /></clipPath><clipPath
   id="clipPath18-7"><path
     id="path20-1"
     d="m 0,1179.7 792,0 0,44.8001 -792,0 0,-44.8001 z"
     inkscape:connector-curvature="0" /></clipPath><clipPath
   clipPathUnits="userSpaceOnUse"
   id="clipPath16-6"><path
     d="M 0,600 600,600 600,0 0,0 0,600 z"
     id="path18-0"
     inkscape:connector-curvature="0" /></clipPath><clipPath
   id="clipPath16-9"
   clipPathUnits="userSpaceOnUse"><path
     inkscape:connector-curvature="0"
     id="path18-4"
     d="M 0,612 792,612 792,0 0,0 0,612 z" /></clipPath><clipPath
   clipPathUnits="userSpaceOnUse"
   id="clipPath16-6-0"><path
     d="M 0,600 600,600 600,0 0,0 0,600 z"
     id="path18-0-5"
     inkscape:connector-curvature="0" /></clipPath><clipPath
   id="clipPath16-5"
   clipPathUnits="userSpaceOnUse"><path
     inkscape:connector-curvature="0"
     id="path18-70"
     d="M 0,612 792,612 792,0 0,0 0,612 z" /></clipPath>
  

    
  
      
    
    
  
      
    <radialGradient
   spreadMethod="pad"
   gradientTransform="matrix(317.45,0,0,-317.45,291.735,341.233)"
   gradientUnits="userSpaceOnUse"
   id="radialGradient22"
   fy="0"
   fx="0"
   r="1"
   cy="0"
   cx="0"><stop
     offset="0"
     style="stop-color:#fcfdf7;stop-opacity:1"
     id="stop24" /><stop
     offset="1"
     style="stop-color:#e8e9e1;stop-opacity:1"
     id="stop26" /></radialGradient><clipPath
   id="clipPath18-70"><path
     id="path20-3"
     d="M 0,6824.66 0,0 l 5834.71,0 0,6824.66 -5834.71,0 z"
     inkscape:connector-curvature="0" /></clipPath>



  

    
  
      
    
    
  
      
    <radialGradient
   spreadMethod="pad"
   gradientTransform="matrix(317.45,0,0,-317.45,291.735,341.233)"
   gradientUnits="userSpaceOnUse"
   id="radialGradient22-1"
   fy="0"
   fx="0"
   r="1"
   cy="0"
   cx="0"><stop
     offset="0"
     style="stop-color:#fcfdf7;stop-opacity:1"
     id="stop24-8" /><stop
     offset="1"
     style="stop-color:#e8e9e1;stop-opacity:1"
     id="stop26-9" /></radialGradient><clipPath
   id="clipPath18-2"><path
     id="path20-37"
     d="M 0,6824.66 0,0 l 5834.71,0 0,6824.66 -5834.71,0 z"
     inkscape:connector-curvature="0" /></clipPath>
  

    
  
      
    
    
  
      
    <radialGradient
   spreadMethod="pad"
   gradientTransform="matrix(317.45,0,0,-317.45,291.735,341.233)"
   gradientUnits="userSpaceOnUse"
   id="radialGradient22-0"
   fy="0"
   fx="0"
   r="1"
   cy="0"
   cx="0"><stop
     offset="0"
     style="stop-color:#fcfdf7;stop-opacity:1"
     id="stop24-4" /><stop
     offset="1"
     style="stop-color:#e8e9e1;stop-opacity:1"
     id="stop26-6" /></radialGradient><clipPath
   id="clipPath18-8"><path
     id="path20-4"
     d="M 0,6824.66 0,0 l 5834.71,0 0,6824.66 -5834.71,0 z"
     inkscape:connector-curvature="0" /></clipPath></defs><sodipodi:namedview
     pagecolor="#ffffff"
     bordercolor="#666666"
     borderopacity="1"
     objecttolerance="10"
     gridtolerance="10"
     guidetolerance="10"
     inkscape:pageopacity="0"
     inkscape:pageshadow="2"
     inkscape:window-width="1436"
     inkscape:window-height="856"
     id="namedview4"
     showgrid="false"
     units="in"
     inkscape:zoom="6.6313952"
     inkscape:cx="48.94271"
     inkscape:cy="19.916222"
     inkscape:window-x="0"
     inkscape:window-y="0"
     inkscape:window-maximized="1"
     inkscape:current-layer="g10"
     showborder="true"
     fit-margin-top="0"
     fit-margin-left="0"
     fit-margin-right="0"
     fit-margin-bottom="0"><inkscape:grid
       type="xygrid"
       id="grid17483"
       empspacing="5"
       visible="true"
       enabled="true"
       snapvisiblegridlinesonly="true"
       units="in"
       spacingx="0.125in"
       spacingy="0.125in" /></sodipodi:namedview><g
     id="g10"
     inkscape:groupmode="layer"
     inkscape:label="viennese_ball_2010_tickets_inverted"
     transform="matrix(1.25,0,0,-1.25,-94.802413,203.65626)"
     style="display:inline">




































<path
   style="font-size:36px;font-variant:normal;font-weight:normal;writing-mode:lr-tb;fill:#dd3682;fill-opacity:1;fill-rule:nonzero;stroke:none;font-family:Edwardian Script ITC;-inkscape-font-specification:EdwardianScriptITC"
   d="m 120.74987,162.92501 c -2.7774,-3e-5 -5.98051,-1.03908 -9.625,-3.125 -2.23832,-1.27736 -4.27035,-2.69143 -6.075,-4.25 -1.80472,-1.5469 -3.88285,-3.67971 -6.250002,-6.375 -4.00784,-4.55861 -6.48752,-7.33048 -7.425,-8.35 -1.042992,-1.13672 -2.052368,-2.12969 -3.025,-2.95 -1.265648,-1.08984 -1.9758,-1.625 -2.175,-1.625 l -0.05,0.05 c -1.6e-5,0.0234 0.05779,0.10938 0.175,0.25 2.999976,3.49219 5.17732,6.56328 6.525,9.2 1.347632,2.63671 2.024976,5.13436 2.025,7.525 -2.4e-5,2.23826 -0.61956,4.05389 -1.85,5.425 -0.383584,0.43106 -0.81756,0.77979 -1.275,1.075 -0.05406,0.0407 -0.11764,0.086 -0.175,0.125 -0.06054,0.0358 -0.113232,0.0664 -0.175,0.1 -0.741464,0.45928 -1.727512,0.80816 -3.025,1.05 -2.431832,0.45327 -5.41416,-0.26616 -7.1,-1.225 -1.02293,-0.58159 -1.7922,-1.21565 -2.675,-1.925 -0.818169,-0.65722 -1.55588,-1.80408 -2,-2.825 -0.70292,-1.61564 -1.06465,-4.10865 -0.325,-6.025 0.3488,-0.90351 0.82396,-1.71918 1.375,-2.425 0.94732,-1.21331 2.78855,-2.49477 4.525,-2.9 1.720424,-0.40132 3.695496,0.37986 3.225,2.25 -0.410288,1.63041 -1.837504,1.35828 -3.35,1.825 -0.70784,0.21827 -1.57255,0.77131 -2,1.3 -0.43263,0.53514 -0.82808,1.07006 -1.1,1.775 -0.516589,1.34006 -0.198909,3.19425 0.275,4.275 1.43352,3.26922 3.902712,4.6561 6.5,4.95 6.279008,0.18092 7.332248,-4.84478 7.1,-7.075 -0.0024,-0.0228 0.0026,-0.0528 0,-0.075 -0.241648,-2.15672 -0.943552,-4.7039 -2.125,-7.625 -1.476584,-3.6797 -3.2758,-6.8414 -5.35,-9.525 -0.257832,-0.35156 -0.375016,-0.5383 -0.375,-0.55 -1.6e-5,-0.0703 0.02967,-0.1 0.1,-0.1 0.117168,1e-5 0.751544,0.40625 1.9,1.25 2.179664,1.58203 5.424192,4.82656 9.725,9.725 3.644492,4.13671 6.125742,6.86093 7.450002,8.15 1.37106,1.31249 3.03122,2.59764 5,3.875 2.05076,1.31834 3.96875,2.31582 5.75,2.975 0.0673,0.0164 0.0873,4.1e-4 0.175,0.025 0.71185,0.19946 2.58858,0.75339 3.6,0.85 1.7581,0.16794 2.83406,-0.77754 3.975,0.05 0.4378,0.31754 -0.0376,0.875 -1.275,0.875 -0.0607,0 -0.15758,-0.0227 -0.225,-0.025 -0.12262,0.008 -0.23071,0.025 -0.375,0.025 z m -35.225002,-3.625 c -0.373368,-0.005 -0.739304,-0.0659 -1.075,-0.175 -1.274208,-0.41396 -2.36763,-1.50374 -2.9,-2.725 -1.314809,-3.01604 1.00143,-5.35373 3.525,-5.75 1.73268,-0.27218 3.496216,1.46294 2.025,2.575 -0.832568,0.62945 -1.516688,-0.1 -2.45,0.025 -0.729048,0.0977 -1.279472,0.37256 -1.6,0.875 -0.1881,0.2949 -0.223629,0.62798 -0.3,1.05 -0.46268,2.55715 1.562496,3.86616 3.875,3.85 0.007,0.0142 0.0179,0.036 0.025,0.05 -0.367312,0.17156 -0.751632,0.23005 -1.125,0.225 z"
   id="path5424"
   inkscape:connector-curvature="0"
   inkscape:export-filename="/Users/brettwines/Desktop/viennese-v-magenta.png"
   inkscape:export-xdpi="455.10999"
   inkscape:export-ydpi="455.10999"
   sodipodi:nodetypes="cccccccccccccccsccccccccccscccccccccccccsssccccccccccccc" />

</g></svg>