<?xml version="1.0" encoding="UTF-8" standalone="no"?>
<svg
   xmlns:dc="http://purl.org/dc/elements/1.1/"
   xmlns:cc="http://creativecommons.org/ns#"
   xmlns:rdf="http://www.w3.org/1999/02/22-rdf-syntax-ns#"
   xmlns:svg="http://www.w3.org/2000/svg"
   xmlns="http://www.w3.org/2000/svg"
   xmlns:sodipodi="http://sodipodi.sourceforge.net/DTD/sodipodi-0.dtd"
   xmlns:inkscape="http://www.inkscape.org/namespaces/inkscape"
   width="481.8897pt"
   height="340.1574pt"
   viewBox="0 0 481.8897 340.1574"
   version="1.1"
   id="svg2"
   inkscape:version="0.48.2 r9819"
   sodipodi:docname="zora.svg">
  <metadata
     id="metadata22">
    <rdf:RDF>
      <cc:Work
         rdf:about="">
        <dc:format>image/svg+xml</dc:format>
        <dc:type
           rdf:resource="http://purl.org/dc/dcmitype/StillImage" />
        <dc:title></dc:title>
      </cc:Work>
    </rdf:RDF>
  </metadata>
  <sodipodi:namedview
     pagecolor="#ffffff"
     bordercolor="#666666"
     borderopacity="1"
     objecttolerance="10"
     gridtolerance="10"
     guidetolerance="10"
     inkscape:pageopacity="0"
     inkscape:pageshadow="2"
     inkscape:window-width="1262"
     inkscape:window-height="756"
     id="namedview20"
     showgrid="false"
     inkscape:zoom="0.55503713"
     inkscape:cx="-25.075123"
     inkscape:cy="2.3905417"
     inkscape:window-x="0"
     inkscape:window-y="0"
     inkscape:window-maximized="0"
     inkscape:current-layer="svg2" />
  <defs
     id="defs4">
    <clipPath
       id="clip1">
      <path
         d="M 0 340.15625 L 481.890625 340.15625 L 481.890625 0 L 0 0 L 0 340.15625 Z M 0 340.15625 "
         id="path7" />
    </clipPath>
  </defs>
  <g
     inkscape:export-ydpi="90"
     inkscape:export-xdpi="90"
     inkscape:export-filename="/Users/brett/Desktop/Code/github/bgwines.net/img/zora.png"
     id="g3771"
     transform="matrix(0.24962179,0,0,0.24962179,242.14596,253.26047)">
    <path
       inkscape:connector-curvature="0"
       id="path3773"
       d="M 0,340.15625 113.38672,170.07812 0,0 85.039062,0 198.42578,170.07812 85.039062,340.15625 0,340.15625 z m 0,0"
       style="fill:#d33682;fill-opacity:1;fill-rule:nonzero;stroke:none" />
    <path
       inkscape:connector-curvature="0"
       id="path3775"
       d="M 113.38672,340.15625 226.77344,170.07812 113.38672,0 l 85.03906,0 226.76953,340.15625 -85.03906,0 -70.86328,-106.29688 -70.86719,106.29688 -85.03906,0 z m 0,0"
       style="fill:#d33682;fill-opacity:1;fill-rule:nonzero;stroke:none" />
    <path
       inkscape:connector-curvature="0"
       id="path3777"
       d="m 387.40234,240.94531 -37.79297,-56.6914 132.28125,-0.004 0,56.69531 -94.48828,0 z m 0,0"
       style="fill:#d33682;fill-opacity:1;fill-rule:nonzero;stroke:none" />
    <path
       inkscape:connector-curvature="0"
       id="path3779"
       d="m 330.71094,155.90625 -37.79688,-56.691406 188.97656,-0.0039 0,56.695316 -151.17968,0 z m 0,0"
       style="fill:#d33682;fill-opacity:1;fill-rule:nonzero;stroke:none" />
  </g>
  <g
     inkscape:export-ydpi="90"
     inkscape:export-xdpi="90"
     inkscape:export-filename="/Users/brett/Desktop/Code/github/bgwines.net/img/zora.png"
     transform="matrix(0.24962179,0,0,0.24962179,129.20675,52.192854)"
     id="g3781">
    <path
       style="fill:#d33682;fill-opacity:1;fill-rule:nonzero;stroke:none"
       d="M 0,340.15625 113.38672,170.07812 0,0 85.039062,0 198.42578,170.07812 85.039062,340.15625 0,340.15625 z m 0,0"
       id="path3783"
       inkscape:connector-curvature="0" />
    <path
       style="fill:#d33682;fill-opacity:1;fill-rule:nonzero;stroke:none"
       d="M 113.38672,340.15625 226.77344,170.07812 113.38672,0 l 85.03906,0 226.76953,340.15625 -85.03906,0 -70.86328,-106.29688 -70.86719,106.29688 -85.03906,0 z m 0,0"
       id="path3785"
       inkscape:connector-curvature="0" />
    <path
       style="fill:#d33682;fill-opacity:1;fill-rule:nonzero;stroke:none"
       d="m 387.40234,240.94531 -37.79297,-56.6914 132.28125,-0.004 0,56.69531 -94.48828,0 z m 0,0"
       id="path3787"
       inkscape:connector-curvature="0" />
    <path
       style="fill:#d33682;fill-opacity:1;fill-rule:nonzero;stroke:none"
       d="m 330.71094,155.90625 -37.79688,-56.691406 188.97656,-0.0039 0,56.695316 -151.17968,0 z m 0,0"
       id="path3789"
       inkscape:connector-curvature="0" />
  </g>
  <g
     inkscape:export-ydpi="90"
     inkscape:export-xdpi="90"
     inkscape:export-filename="/Users/brett/Desktop/Code/github/bgwines.net/img/zora.png"
     id="g3791"
     transform="matrix(0.24962179,0,0,0.24962179,10.089408,253.26047)">
    <path
       inkscape:connector-curvature="0"
       id="path3793"
       d="M 0,340.15625 113.38672,170.07812 0,0 85.039062,0 198.42578,170.07812 85.039062,340.15625 0,340.15625 z m 0,0"
       style="fill:#d33682;fill-opacity:1;fill-rule:nonzero;stroke:none" />
    <path
       inkscape:connector-curvature="0"
       id="path3795"
       d="M 113.38672,340.15625 226.77344,170.07812 113.38672,0 l 85.03906,0 226.76953,340.15625 -85.03906,0 -70.86328,-106.29688 -70.86719,106.29688 -85.03906,0 z m 0,0"
       style="fill:#d33682;fill-opacity:1;fill-rule:nonzero;stroke:none" />
    <path
       inkscape:connector-curvature="0"
       id="path3797"
       d="m 387.40234,240.94531 -37.79297,-56.6914 132.28125,-0.004 0,56.69531 -94.48828,0 z m 0,0"
       style="fill:#d33682;fill-opacity:1;fill-rule:nonzero;stroke:none" />
    <path
       inkscape:connector-curvature="0"
       id="path3799"
       d="m 330.71094,155.90625 -37.79688,-56.691406 188.97656,-0.0039 0,56.695316 -151.17968,0 z m 0,0"
       style="fill:#d33682;fill-opacity:1;fill-rule:nonzero;stroke:none" />
  </g>
  <path
     transform="matrix(0.27888632,0,0,0.28231795,305.09531,159.6627)"
     d="m -304.48412,246.83034 a 123.41517,111.70424 0 1 1 -246.83034,0 123.41517,111.70424 0 1 1 246.83034,0 z"
     sodipodi:ry="111.70424"
     sodipodi:rx="123.41517"
     sodipodi:cy="246.83034"
     sodipodi:cx="-427.89929"
     id="path3807"
     style="fill:#d33682;fill-opacity:1;stroke:none"
     sodipodi:type="arc"
     inkscape:export-filename="/Users/brett/Desktop/Code/github/bgwines.net/img/zora.png"
     inkscape:export-xdpi="90"
     inkscape:export-ydpi="90" />
  <path
     style="fill:#d33682;fill-opacity:1;stroke:none"
     d="m 186.77695,17.673117 c -54.03561,1.369 -97.425,45.609472 -97.425,99.975003 0,55.22847 44.77153,100 100,100 55.22847,0 100,-44.77153 100,-100 0,-54.533083 -43.65732,-98.867107 -97.925,-99.975003 43.22849,1.0952 77.925,36.482576 77.925,79.975 0,44.182773 -35.81722,80.000003 -80,80.000003 -44.18279,0 -80,-35.81723 -80,-80.000003 0,-43.492424 34.72151,-78.8798 77.95,-79.975 -0.17508,0.0035 -0.35015,-0.0044 -0.525,0 z"
     id="path3809"
     inkscape:connector-curvature="0"
     inkscape:export-filename="/Users/brett/Desktop/Code/github/bgwines.net/img/zora.png"
     inkscape:export-xdpi="90"
     inkscape:export-ydpi="90" />
  <path
     inkscape:connector-curvature="0"
     id="path3814"
     d="m 373.79045,331.89959 c 25.83223,-47.48072 9.21355,-107.17728 -37.86838,-134.36004 -47.82927,-27.61423 -108.9883,-11.22671 -136.60255,36.60254 -27.61423,47.82927 -11.22672,108.98831 36.60254,136.60255 47.22704,27.26654 107.45009,11.6252 135.5434,-34.81804 -22.56271,36.88937 -70.55734,49.24374 -108.22288,27.49753 -38.26341,-22.09138 -51.37343,-71.01862 -29.28204,-109.28203 22.0914,-38.26343 71.01863,-51.37342 109.28203,-29.28204 37.66555,21.74622 50.95116,69.50962 30.28539,107.49419 0.0845,-0.15337 0.17888,-0.30104 0.26249,-0.45466 z"
     style="fill:#d33682;fill-opacity:1;stroke:none"
     inkscape:export-filename="/Users/brett/Desktop/Code/github/bgwines.net/img/zora.png"
     inkscape:export-xdpi="90"
     inkscape:export-ydpi="90" />
  <path
     style="fill:#d33682;fill-opacity:1;stroke:none"
     d="m 7.48468,336.35885 c 28.203394,46.11172 88.211464,61.5678 135.29339,34.38503 47.82926,-27.61424 64.21677,-88.77328 36.60254,-136.60254 C 151.76637,186.31208 90.607334,169.92456 42.778074,197.5388 -4.448962,224.80534 -21.014694,284.7807 5.15968,332.33184 -15.506094,294.34727 -2.207982,246.60552 35.457564,224.85931 c 38.2634,-22.09139 87.190636,-8.98138 109.282026,29.28203 22.0914,38.26342 8.98137,87.19064 -29.28203,109.28203 -37.665546,21.74621 -85.672666,9.37019 -108.23538,-27.51918 0.09057,0.14987 0.171265,0.30544 0.2625,0.45466 z"
     id="path3816"
     inkscape:connector-curvature="0"
     inkscape:export-filename="/Users/brett/Desktop/Code/github/bgwines.net/img/zora.png"
     inkscape:export-xdpi="90"
     inkscape:export-ydpi="90" />
</svg>
